<svg xmlns="http://www.w3.org/2000/svg" version="1.1" viewBox="-5.0 -10.0 110.0 135.0">
 <path d="m50 5.1406c24.758 0 44.859 20.102 44.859 44.859s-20.102 44.859-44.859 44.859-44.859-20.102-44.859-44.859 20.102-44.859 44.859-44.859zm21.715 40.488h4.0898c0.39844 0 0.75781-0.24609 0.90234-0.62109 0.14453-0.37109 0.042969-0.79687-0.25391-1.0625l-25.805-23.34c-0.36719-0.33203-0.92969-0.33203-1.2969 0l-25.805 23.34c-0.29688 0.26563-0.39453 0.69141-0.25391 1.0625 0.14453 0.375 0.50391 0.62109 0.90625 0.62109h4.5195c0.53516 0 0.96875 0.43359 0.96875 0.96875v25.426c0 0.53516 0.42969 0.96875 0.96484 0.96875h11.082c0.53125 0 0.96484-0.43359 0.96484-0.96875v-19.219c0-0.25781 0.10156-0.50391 0.28516-0.68359 0.17969-0.18359 0.42578-0.28516 0.68359-0.28516h12.234c0.25391 0 0.5 0.10156 0.68359 0.28516 0.17969 0.17969 0.28125 0.42578 0.28125 0.68359v19.219c0 0.53516 0.43359 0.96875 0.96875 0.96875h11.941c0.53516 0 0.96875-0.43359 0.96875-0.96875v-25.426c0-0.53516 0.43359-0.96875 0.96875-0.96875z" fill-rule="evenodd"/>
<text x="0.0" y="117.5" font-size="5.0" font-weight="bold" font-family="Arbeit Regular, Helvetica, Arial-Unicode, Arial, Sans-serif" fill="#000000">Created by Lyr.</text><text x="0.0" y="122.5" font-size="5.0" font-weight="bold" font-family="Arbeit Regular, Helvetica, Arial-Unicode, Arial, Sans-serif" fill="#000000">from Noun Project</text></svg>