<svg xmlns="http://www.w3.org/2000/svg" xmlns:xlink="http://www.w3.org/1999/xlink" version="1.1" x="0px" y="0px" viewBox="0 0 381.5 426.25" enable-background="new 0 0 381.5 341" xml:space="preserve"><path d="M206.484,42.998l-87.829,54.001H41.583c-6.627,0-12,5.372-12,12v114.666c0,6.628,5.373,12,12,12h77.076l87.825,54.001  c5.518,3.394,12,0.755,12-12V54.998C218.484,42.121,212.365,39.24,206.484,42.998z"/><polygon points="358.266,127.446 337.053,106.233 298.255,145.031 259.455,106.233 238.244,127.445 277.042,166.243   238.245,205.043 259.455,226.256 298.256,187.457 337.054,226.256 358.266,205.042 319.468,166.243 "/><text x="0" y="356" fill="#000000" font-size="5px" font-weight="bold" font-family="'Helvetica Neue', Helvetica, Arial-Unicode, Arial, Sans-serif">Created by corpus delicti</text><text x="0" y="361" fill="#000000" font-size="5px" font-weight="bold" font-family="'Helvetica Neue', Helvetica, Arial-Unicode, Arial, Sans-serif">from the Noun Project</text></svg>