<svg xmlns="http://www.w3.org/2000/svg" xmlns:xlink="http://www.w3.org/1999/xlink" version="1.1" x="0px" y="0px" viewBox="0 0 381.5 426.25" enable-background="new 0 0 381.5 341" xml:space="preserve"><path d="M279.735,265.189c-5.887-5.828-15.385-5.783-21.213,0.105c-20.454,20.659-47.729,32.116-76.799,32.261  c-0.187,0.001-0.372,0.002-0.558,0.002c-28.863,0-56.033-11.173-76.559-31.495c-20.659-20.454-32.117-47.729-32.262-76.799  c-0.145-29.071,11.04-56.458,31.494-77.116c35.521-35.877,90.027-41.808,131.828-17.645l-44.273,12.734  c-7.961,2.29-12.559,10.601-10.269,18.562c1.892,6.577,7.891,10.858,14.409,10.857c1.372,0,2.769-0.19,4.153-0.588l72.837-20.95  c0.253-0.074,0.502-0.167,0.752-0.254c3.517-1.2,6.479-3.651,8.287-6.918c1.926-3.481,2.39-7.585,1.289-11.409l-20.978-72.898  c-2.291-7.961-10.598-12.555-18.563-10.267c-7.961,2.291-12.558,10.602-10.267,18.563l9.242,32.117  C190.233,38.591,125.487,47.643,82.52,91.04c-26.092,26.354-40.359,61.29-40.175,98.373c0.185,37.084,14.8,71.876,41.154,97.968  c26.186,25.927,60.84,40.177,97.662,40.177c0.235,0,0.477-0.001,0.712-0.002c37.084-0.185,71.876-14.8,97.968-41.153  C285.67,280.516,285.622,271.018,279.735,265.189z"/><text x="0" y="356" fill="#000000" font-size="5px" font-weight="bold" font-family="'Helvetica Neue', Helvetica, Arial-Unicode, Arial, Sans-serif">Created by corpus delicti</text><text x="0" y="361" fill="#000000" font-size="5px" font-weight="bold" font-family="'Helvetica Neue', Helvetica, Arial-Unicode, Arial, Sans-serif">from the Noun Project</text></svg>