<svg xmlns="http://www.w3.org/2000/svg" xmlns:xlink="http://www.w3.org/1999/xlink" viewBox="0 0 100 125" version="1.1" x="0px" y="0px"><title>Gear 7.5</title><desc>Created with Sketch.</desc><g stroke="none" stroke-width="1" fill="none" fill-rule="evenodd"><g fill="#000000"><path d="M38.2386128,67.559919 C36.8661525,68.8883264 34.6647126,68.8758088 33.3123128,67.5227089 L32.4774775,66.6874415 C31.1292174,65.3384835 31.1130997,63.1323635 32.4412907,61.760128 L32.7843238,61.4057194 C33.7761757,60.3809763 34.1383294,58.4834141 33.586153,57.1503424 L33.3376019,56.550287 C32.788588,55.2248502 31.1820544,54.1303301 29.7605481,54.1058018 L29.6171053,54.1033267 C27.7125075,54.0704626 26.1681274,52.5035687 26.1676324,50.5904915 L26.1673268,49.4095505 C26.1668333,47.5023293 27.708881,45.9296054 29.6153787,45.8967079 L29.7588366,45.8942325 C31.1855264,45.8696143 32.7840754,44.7826031 33.3298446,43.4649996 L33.591477,42.8333632 C34.1370004,41.5163531 33.7667784,39.6093064 32.7831484,38.5930571 L32.440081,38.2386128 C31.1116736,36.8661525 31.1241912,34.6647126 32.4772911,33.3123128 L33.3125585,32.4774775 C34.6615165,31.1292174 36.8676365,31.1130997 38.239872,32.4412907 L38.5942806,32.7843238 C39.6190237,33.7761757 41.5165859,34.1383294 42.8496576,33.586153 L43.449713,33.3376019 C44.7751498,32.788588 45.8696699,31.1820544 45.8941982,29.7605481 L45.8966733,29.6171053 C45.9295374,27.7125075 47.4964313,26.1681274 49.4095085,26.1676324 L50.5904495,26.1673268 C52.4976707,26.1668333 54.0703946,27.708881 54.1032921,29.6153787 L54.1057675,29.7588366 C54.1303857,31.1855264 55.2173969,32.7840754 56.5350004,33.3298446 L57.1666368,33.591477 C58.4836469,34.1370004 60.3906936,33.7667784 61.4069429,32.7831484 L61.7613872,32.440081 C63.1338475,31.1116736 65.3352874,31.1241912 66.6876872,32.4772911 L67.5225225,33.3125585 C68.8707826,34.6615165 68.8869003,36.8676365 67.5587093,38.239872 L67.2156762,38.5942806 C66.2238243,39.6190237 65.8616706,41.5165859 66.413847,42.8496576 L66.6623981,43.449713 C67.211412,44.7751498 68.8179456,45.8696699 70.2394519,45.8941982 L70.3828947,45.8966733 C72.2874925,45.9295374 73.8318726,47.4964313 73.8323676,49.4095085 L73.8326732,50.5904495 C73.8331667,52.4976707 72.291119,54.0703946 70.3846213,54.1032921 L70.2411634,54.1057675 C68.8144736,54.1303857 67.2159246,55.2173969 66.6701554,56.5350004 L66.408523,57.1666368 C65.8629996,58.4836469 66.2332216,60.3906936 67.2168516,61.4069429 L67.559919,61.7613872 C68.8883264,63.1338475 68.8758088,65.3352874 67.5227089,66.6876872 L66.6874415,67.5225225 C65.3384835,68.8707826 63.1323635,68.8869003 61.760128,67.5587093 L61.4057194,67.2156762 C60.3809763,66.2238243 58.4834141,65.8616706 57.1503424,66.413847 L56.550287,66.6623981 C55.2248502,67.211412 54.1303301,68.8179456 54.1058018,70.2394519 L54.1033267,70.3828947 C54.0704626,72.2874925 52.5035687,73.8318726 50.5904915,73.8323676 L49.4095505,73.8326732 C47.5023293,73.8331667 45.9296054,72.291119 45.8967079,70.3846213 L45.8942325,70.2411634 C45.8696143,68.8144736 44.7826031,67.2159246 43.4649996,66.6701554 L42.8333632,66.408523 C41.5163531,65.8629996 39.6093064,66.2332216 38.5930571,67.2168516 L38.2386128,67.559919 Z M50,88 C29.0131795,88 12,70.9868205 12,50 C12,29.0131795 29.0131795,12 50,12 C70.9868205,12 88,29.0131795 88,50 C88,70.9868205 70.9868205,88 50,88 Z M45.7035087,60.3726475 C51.4321638,62.7455341 57.9997609,60.0251463 60.3726475,54.2964913 C62.7455341,48.5678362 60.0251463,42.0002391 54.2964913,39.6273525 C48.5678362,37.2544659 42.0002391,39.9748537 39.6273525,45.7035087 C37.2544659,51.4321638 39.9748537,57.9997609 45.7035087,60.3726475 Z"/></g></g><text x="0" y="115" fill="#000000" font-size="5px" font-weight="bold" font-family="'Helvetica Neue', Helvetica, Arial-Unicode, Arial, Sans-serif">Created by Landan Lloyd</text><text x="0" y="120" fill="#000000" font-size="5px" font-weight="bold" font-family="'Helvetica Neue', Helvetica, Arial-Unicode, Arial, Sans-serif">from the Noun Project</text></svg>